{
  "accessors": [
    {
      "bufferView": 2,
      "componentType": 5126,
      "count": 56,
      "max": [
        0.07499999552965164,
        0.10000000149011612,
        0.005384528078138828
      ],
      "min": [
        -0.07499999552965164,
        -0.10000000149011612,
        -0.005384509451687336
      ],
      "type": "VEC3"
    },
    {
      "bufferView": 2,
      "byteOffset": 672,
      "componentType": 5126,
      "count": 56,
      "max": [
        1.0,
        1.0,
        1.0
      ],
      "min": [
        -1.0,
        -1.0,
        -1.0
      ],
      "type": "VEC3"
    },
    {
      "bufferView": 0,
      "componentType": 5125,
      "count": 84,
      "type": "SCALAR"
    },
    {
      "bufferView": 2,
      "byteOffset": 1344,
      "componentType": 5126,
      "count": 132,
      "max": [
        0.024982694536447525,
        0.0014561599818989635,
        0.0012507196515798569
      ],
      "min": [
        -0.03347140550613403,
        -0.14791733026504517,
        -0.004308116622269154
      ],
      "type": "VEC3"
    },
    {
      "bufferView": 2,
      "byteOffset": 2928,
      "componentType": 5126,
      "count": 132,
      "max": [
        0.9997987151145935,
        0.9998660683631897,
        1.0
      ],
      "min": [
        -0.9997987151145935,
        -0.9805880188941956,
        -1.0
      ],
      "type": "VEC3"
    },
    {
      "bufferView": 1,
      "componentType": 5126,
      "count": 132,
      "max": [
        1.0,
        1.0
      ],
      "min": [
        0.0,
        0.0
      ],
      "type": "VEC2"
    },
    {
      "bufferView": 0,
      "byteOffset": 336,
      "componentType": 5125,
      "count": 240,
      "type": "SCALAR"
    },
    {
      "bufferView": 2,
      "byteOffset": 4512,
      "componentType": 5126,
      "count": 4,
      "max": [
        0.06000000610947609,
        0.08500000834465027,
        0.002500005532056093
      ],
      "min": [
        -0.06000000610947609,
        -0.08500000834465027,
        0.002499994356185198
      ],
      "type": "VEC3"
    },
    {
      "bufferView": 2,
      "byteOffset": 4560,
      "componentType": 5126,
      "count": 4,
      "max": [
        -3.104408463627806e-08,
        4.382694740456827e-08,
        1.0
      ],
      "min": [
        -3.104408463627806e-08,
        4.382694740456827e-08,
        1.0
      ],
      "type": "VEC3"
    },
    {
      "bufferView": 1,
      "byteOffset": 1056,
      "componentType": 5126,
      "count": 4,
      "max": [
        1.0,
        1.0000001192092896
      ],
      "min": [
        -2.9802322387695313e-08,
        -1.4901161193847656e-08
      ],
      "type": "VEC2"
    },
    {
      "bufferView": 0,
      "byteOffset": 1296,
      "componentType": 5125,
      "count": 6,
      "type": "SCALAR"
    },
    {
      "bufferView": 3,
      "componentType": 5126,
      "count": 63,
      "max": [
        5.833333492279053
      ],
      "min": [
        0.0416666679084301
      ],
      "type": "SCALAR"
    },
    {
      "bufferView": 4,
      "componentType": 5126,
      "count": 63,
      "max": [
        0.024909356608986855,
        0.0915030837059021,
        -2.1529383957386017e-05
      ],
      "min": [
        -0.008205115795135498,
        -0.01991010084748268,
        -0.016860811039805412
      ],
      "type": "VEC3"
    },
    {
      "bufferView": 3,
      "byteOffset": 252,
      "componentType": 5126,
      "count": 63,
      "max": [
        5.833333492279053
      ],
      "min": [
        0.0416666679084301
      ],
      "type": "SCALAR"
    },
    {
      "bufferView": 5,
      "componentType": 5126,
      "count": 63,
      "max": [
        0.34042054414749146,
        0.1543339490890503,
        0.284015417098999,
        0.9896305203437805
      ],
      "min": [
        -0.059517160058021545,
        -0.3206295371055603,
        -0.35337963700294495,
        0.8102057576179504
      ],
      "type": "VEC4"
    },
    {
      "bufferView": 3,
      "byteOffset": 504,
      "componentType": 5126,
      "count": 17,
      "max": [
        5.833333492279053
      ],
      "min": [
        0.0416666679084301
      ],
      "type": "SCALAR"
    },
    {
      "bufferView": 4,
      "byteOffset": 756,
      "componentType": 5126,
      "count": 17,
      "max": [
        1.0,
        1.0,
        1.0000001192092896
      ],
      "min": [
        1.0,
        0.9999998807907104,
        0.9999998807907104
      ],
      "type": "VEC3"
    },
    {
      "bufferView": 3,
      "byteOffset": 572,
      "componentType": 5126,
      "count": 63,
      "max": [
        5.833333492279053
      ],
      "min": [
        0.0416666679084301
      ],
      "type": "SCALAR"
    },
    {
      "bufferView": 4,
      "byteOffset": 960,
      "componentType": 5126,
      "count": 63,
      "max": [
        0.0,
        0.07944390177726746,
        0.00897215586155653
      ],
      "min": [
        0.0,
        -0.025438537821173668,
        -0.0
      ],
      "type": "VEC3"
    },
    {
      "bufferView": 3,
      "byteOffset": 824,
      "componentType": 5126,
      "count": 63,
      "max": [
        5.833333492279053
      ],
      "min": [
        0.0416666679084301
      ],
      "type": "SCALAR"
    },
    {
      "bufferView": 5,
      "byteOffset": 1008,
      "componentType": 5126,
      "count": 63,
      "max": [
        0.0,
        0.0,
        -0.0,
        1.0
      ],
      "min": [
        -0.30449655652046204,
        -0.23214071989059448,
        -0.6969688534736633,
        0.6969687342643738
      ],
      "type": "VEC4"
    },
    {
      "bufferView": 3,
      "byteOffset": 1076,
      "componentType": 5126,
      "count": 63,
      "max": [
        5.833333492279053
      ],
      "min": [
        0.0416666679084301
      ],
      "type": "SCALAR"
    },
    {
      "bufferView": 4,
      "byteOffset": 1716,
      "componentType": 5126,
      "count": 63,
      "max": [
        0.0,
        0.07944390177726746,
        0.00897215586155653
      ],
      "min": [
        0.0,
        -0.025438537821173668,
        -0.0
      ],
      "type": "VEC3"
    },
    {
      "bufferView": 3,
      "byteOffset": 1328,
      "componentType": 5126,
      "count": 63,
      "max": [
        5.833333492279053
      ],
      "min": [
        0.0416666679084301
      ],
      "type": "SCALAR"
    },
    {
      "bufferView": 5,
      "byteOffset": 2016,
      "componentType": 5126,
      "count": 63,
      "max": [
        0.0,
        0.0,
        -0.0,
        1.0
      ],
      "min": [
        -0.30449655652046204,
        -0.23214071989059448,
        -0.6969688534736633,
        0.6969687342643738
      ],
      "type": "VEC4"
    }
  ],
  "animations": [
    {
      "channels": [
        {
          "sampler": 0,
          "target": {
            "node": 5,
            "path": "translation"
          }
        },
        {
          "sampler": 1,
          "target": {
            "node": 5,
            "path": "rotation"
          }
        },
        {
          "sampler": 2,
          "target": {
            "node": 5,
            "path": "scale"
          }
        },
        {
          "sampler": 3,
          "target": {
            "node": 7,
            "path": "translation"
          }
        },
        {
          "sampler": 4,
          "target": {
            "node": 7,
            "path": "rotation"
          }
        },
        {
          "sampler": 5,
          "target": {
            "node": 3,
            "path": "translation"
          }
        },
        {
          "sampler": 6,
          "target": {
            "node": 3,
            "path": "rotation"
          }
        }
      ],
      "name": "Animation",
      "samplers": [
        {
          "input": 11,
          "interpolation": "LINEAR",
          "output": 12
        },
        {
          "input": 13,
          "interpolation": "LINEAR",
          "output": 14
        },
        {
          "input": 15,
          "interpolation": "LINEAR",
          "output": 16
        },
        {
          "input": 17,
          "interpolation": "LINEAR",
          "output": 18
        },
        {
          "input": 19,
          "interpolation": "LINEAR",
          "output": 20
        },
        {
          "input": 21,
          "interpolation": "LINEAR",
          "output": 22
        },
        {
          "input": 23,
          "interpolation": "LINEAR",
          "output": 24
        }
      ]
    }
  ],
  "asset": {
    "extras": {
      "author": "game_travel (https://sketchfab.com/game_travel)",
      "license": "CC-BY-4.0 (http://creativecommons.org/licenses/by/4.0/)",
      "source": "https://sketchfab.com/3d-models/photo-frame-low-poly-adda0d31898c4fcd82f3ac8e12ae987e",
      "title": "Photo Frame (Low Poly)"
    },
    "generator": "Sketchfab-11.12.0",
    "version": "2.0"
  },
  "bufferViews": [
    {
      "buffer": 0,
      "byteLength": 1320,
      "name": "floatBufferViews",
      "target": 34963
    },
    {
      "buffer": 0,
      "byteLength": 1088,
      "byteOffset": 1320,
      "byteStride": 8,
      "name": "floatBufferViews",
      "target": 34962
    },
    {
      "buffer": 0,
      "byteLength": 4608,
      "byteOffset": 2408,
      "byteStride": 12,
      "name": "floatBufferViews",
      "target": 34962
    },
    {
      "buffer": 0,
      "byteLength": 1580,
      "byteOffset": 7016,
      "name": "floatBufferViews"
    },
    {
      "buffer": 0,
      "byteLength": 2472,
      "byteOffset": 8596,
      "byteStride": 12,
      "name": "floatBufferViews"
    },
    {
      "buffer": 0,
      "byteLength": 3024,
      "byteOffset": 11068,
      "byteStride": 16,
      "name": "floatBufferViews"
    }
  ],
  "buffers": [
    {
      "byteLength": 14092,
      "uri": "scene.bin"
    }
  ],
  "images": [
    {
      "uri": "textures/Photo_baseColor.png"
    }
  ],
  "materials": [
    {
      "doubleSided": true,
      "name": "material_0",
      "pbrMetallicRoughness": {
        "metallicFactor": 0.0,
        "roughnessFactor": 0.6
      }
    },
    {
      "doubleSided": true,
      "name": "White",
      "pbrMetallicRoughness": {
        "metallicFactor": 0.0,
        "roughnessFactor": 0.4
      }
    },
    {
      "doubleSided": true,
      "name": "Photo",
      "pbrMetallicRoughness": {
        "baseColorTexture": {
          "index": 0
        },
        "metallicFactor": 0.0,
        "roughnessFactor": 0.5
      }
    }
  ],
  "meshes": [
    {
      "name": "Object_0",
      "primitives": [
        {
          "attributes": {
            "NORMAL": 1,
            "POSITION": 0
          },
          "indices": 2,
          "material": 1,
          "mode": 4
        }
      ]
    },
    {
      "name": "Object_1",
      "primitives": [
        {
          "attributes": {
            "NORMAL": 4,
            "POSITION": 3,
            "TEXCOORD_0": 5
          },
          "indices": 6,
          "material": 0,
          "mode": 4
        }
      ]
    },
    {
      "name": "Object_2",
      "primitives": [
        {
          "attributes": {
            "NORMAL": 8,
            "POSITION": 7,
            "TEXCOORD_0": 9
          },
          "indices": 10,
          "material": 2,
          "mode": 4
        }
      ]
    }
  ],
  "nodes": [
    {
      "children": [
        1
      ],
      "matrix": [
        1.0,
        0.0,
        0.0,
        0.0,
        0.0,
        2.220446049250313e-16,
        -1.0,
        0.0,
        0.0,
        1.0,
        2.220446049250313e-16,
        0.0,
        0.0,
        0.0,
        0.0,
        1.0
      ],
      "name": "Sketchfab_model"
    },
    {
      "children": [
        2
      ],
      "name": "root"
    },
    {
      "children": [
        3,
        5,
        7
      ],
      "matrix": [
        1.0,
        0.0,
        0.0,
        0.0,
        0.0,
        2.220446049250313e-16,
        1.0,
        0.0,
        0.0,
        -1.0,
        2.220446049250313e-16,
        0.0,
        0.0,
        0.0,
        0.0,
        1.0
      ],
      "name": "GLTF_SceneRootNode"
    },
    {
      "children": [
        4
      ],
      "name": "Obj_PhotoFrame_2"
    },
    {
      "mesh": 0,
      "name": "Object_4"
    },
    {
      "children": [
        6
      ],
      "name": "Obj_PhotoFrame.001_3",
      "rotation": [
        0.0,
        0.0,
        0.284015417098999,
        0.9588196873664856
      ],
      "translation": [
        -0.008205115795135498,
        0.024909358471632004,
        -0.006642746739089489
      ]
    },
    {
      "mesh": 1,
      "name": "Object_6"
    },
    {
      "children": [
        8
      ],
      "name": "Obj_Photo_4"
    },
    {
      "mesh": 2,
      "name": "Object_8"
    }
  ],
  "samplers": [
    {
      "magFilter": 9729,
      "minFilter": 9987,
      "wrapS": 10497,
      "wrapT": 10497
    }
  ],
  "scene": 0,
  "scenes": [
    {
      "name": "Sketchfab_Scene",
      "nodes": [
        0
      ]
    }
  ],
  "textures": [
    {
      "sampler": 0,
      "source": 0
    }
  ]
}
